<svg width="138" height="36" viewBox="0 0 138 36" fill="none" xmlns="http://www.w3.org/2000/svg">
<path d="M22.033 16.1301L27.6286 21.6816C27.7662 21.818 28 21.7206 28 21.5269V17.133C28 15.5042 27.3613 13.9403 26.221 12.7772L20.6305 7.07454C20.495 6.93625 20.2599 7.03031 20.2571 7.22394L20.1937 11.6233C20.1694 13.313 20.8333 14.9399 22.033 16.1301Z" fill="#F31B1B"/>
<path d="M19.1685 27.3603L27.4614 27.4487C27.6573 27.4508 27.7562 27.2135 27.6169 27.0758L0.264898 0.0452247C0.166641 -0.0518779 0 0.0177239 0 0.155866V6.81227C0 8.88574 0.827921 10.8734 2.29988 12.3337L10.6299 20.598C11.8565 21.8149 11.8565 23.7983 10.6299 25.0152L0.375549 35.1886C0.237442 35.3256 0.334473 35.5612 0.529015 35.5612H7.95331C9.34786 35.5612 10.4955 34.6965 10.8949 34.2641L16.9442 28.2626C17.5351 27.6764 18.3362 27.3514 19.1685 27.3603Z" fill="#F31B1B"/>
<path d="M36.3164 24.6723L43.3477 7.86764H46.418L53.4492 24.6723H51L49.2773 20.395H40.4883L38.7305 24.6723H36.3164ZM41.2852 18.3794H48.457L44.8828 9.62545L41.2852 18.3794Z" fill="#F31B1B"/>
<path d="M68.7422 24.6723H66.0352C65.8398 24.2739 65.6953 23.7934 65.6016 23.2309C65.5078 22.6606 65.457 21.8598 65.4492 20.8286C65.4414 19.6567 65.168 18.8208 64.6289 18.3208C64.0898 17.8208 63.2695 17.5708 62.168 17.5708H57.7734V24.6723H55.5703V7.86764H63.2461C64.8711 7.86764 66.168 8.30514 67.1367 9.18014C68.1133 10.0551 68.6016 11.1411 68.6016 12.438C68.6016 13.477 68.3125 14.3637 67.7344 15.0981C67.1641 15.8325 66.332 16.3833 65.2383 16.7505C66.1055 17.0786 66.7578 17.5708 67.1953 18.227C67.6328 18.8833 67.8672 19.7583 67.8984 20.852C67.9375 21.8833 68.0078 22.6333 68.1094 23.102C68.2109 23.5708 68.4219 23.9809 68.7422 24.3325V24.6723ZM57.7734 15.4848H63.0586C64.0664 15.4848 64.8516 15.2387 65.4141 14.7465C65.9844 14.2544 66.2695 13.5786 66.2695 12.7192C66.2695 11.8442 65.9883 11.1684 65.4258 10.6919C64.8633 10.2075 64.0742 9.96529 63.0586 9.96529H57.7734V15.4848Z" fill="#F31B1B"/>
<path d="M73.1133 16.27C73.1133 18.3169 73.6758 19.934 74.8008 21.1215C75.9258 22.3012 77.3945 22.8911 79.207 22.8911C81.0742 22.8911 82.5156 22.4067 83.5312 21.438C84.5547 20.4614 85.25 19.1567 85.6172 17.5239L87.5625 18.309C87.1172 20.2856 86.1641 21.8794 84.7031 23.0903C83.2422 24.3012 81.4102 24.9067 79.207 24.9067C77.5586 24.9223 76.0859 24.5512 74.7891 23.7934C73.5 23.0356 72.5078 22.0005 71.8125 20.688C71.1172 19.3676 70.7812 17.895 70.8047 16.27C70.7891 15.0825 70.9961 13.9536 71.4258 12.8833C71.8633 11.8051 72.4531 10.8794 73.1953 10.1059C73.9453 9.33248 74.8438 8.72311 75.8906 8.27779C76.9453 7.82467 78.0508 7.60983 79.207 7.63326C81.2695 7.63326 82.9102 8.16061 84.1289 9.21529C85.3711 10.27 86.2109 11.6059 86.6484 13.2231L84.6328 14.1372C84.3359 12.7622 83.7188 11.6723 82.7812 10.8676C81.8438 10.0551 80.6523 9.64889 79.207 9.64889C78.3555 9.64889 77.5547 9.80904 76.8047 10.1294C76.0625 10.4419 75.418 10.8794 74.8711 11.4419C74.3242 12.0044 73.8945 12.7036 73.582 13.5395C73.2695 14.3755 73.1133 15.2856 73.1133 16.27Z" fill="#F31B1B"/>
<path d="M88.1836 24.6723L95.2148 7.86764H98.2852L105.316 24.6723H102.867L101.145 20.395H92.3555L90.5977 24.6723H88.1836ZM93.1523 18.3794H100.324L96.75 9.62545L93.1523 18.3794Z" fill="#F31B1B"/>
<path d="M109.641 9.40279V24.6723H107.438V7.86764H111.223L119.965 23.1372V7.86764H122.168V24.6723H118.348L109.641 9.40279Z" fill="#F31B1B"/>
<path d="M125.812 7.86764H137.637V9.96529H128.016V14.934H136.922V17.02H128.016V22.5864H137.883V24.6723H125.812V7.86764Z" fill="#F31B1B"/>
</svg>
