<svg width="112" height="33" viewBox="0 0 112 33" fill="none" xmlns="http://www.w3.org/2000/svg">
<g clip-path="url(#clip0_2484_11492)">
<path d="M9.95589 7.87892L13.0686 7.85418C16.2181 7.82944 19.1351 9.50235 20.7312 12.2452C21.5415 13.6367 21.9482 15.2013 21.9482 16.7598C21.9482 18.3183 21.566 19.7902 20.8016 21.1539C19.2513 23.9184 16.3557 25.6438 13.2123 25.6686L10.228 25.6933H3.29011L2.78865 30.3162L4.20131 32.7313L7.70237 32.7003L13.2674 32.6539C18.8813 32.6076 24.0458 29.5308 26.813 24.5956C29.5802 19.6573 29.5282 13.5965 26.6815 8.70454C25.2719 6.27713 23.2752 4.31356 20.9361 2.96535C19.8812 2.34999 18.7498 1.86451 17.5757 1.51509C16.1538 1.09145 14.6617 0.865723 13.142 0.865723H13.0105L3.9414 0.943029L2.30859 5.31545L4.53765 7.88202H7.97756L7.98673 7.89747L9.92837 7.88202H9.95589V7.87892Z" fill="url(#paint0_linear_2484_11492)"/>
<path d="M9.11806 9.85276C11.604 14.1262 11.6468 19.4201 9.23119 23.7338L8.12431 25.7098L4.19516 32.7291H4.18905L0.143712 25.7747H0.149824L4.07897 18.7615C4.7486 17.5648 4.73638 16.0991 4.04534 14.9148L0.00611204 7.96031H0L3.93526 0.940918L7.98059 7.89536L9.11806 9.85276Z" fill="url(#paint1_linear_2484_11492)"/>
<path d="M74.6265 1.48242L86.1938 32.1172H78.1431L73.5903 19.5908L70.481 10.9639L67.3735 19.5908L64.9917 26.1709H64.9585L62.8394 32.1172H54.981L66.5483 1.48242H74.6265ZM100.73 1.48242C104.072 1.48242 106.742 2.40679 108.742 4.25586L108.745 4.2627C110.747 6.11494 111.748 8.73726 111.748 12.0645C111.748 15.3916 110.747 17.9801 108.745 19.8262C106.745 21.6659 104.073 22.5868 100.734 22.5869H95.3091V32.1172H87.4507V1.48242H100.73ZM53.9663 1.47949V1.67383L41.0474 25.1689H53.8188V32.1143H28.853V31.9199L41.9858 8.35352H29.4556V1.47949H53.9663ZM95.3091 8.20801V15.8867H99.8862V15.8828C102.65 15.8828 104.033 14.6273 104.033 12.0576C104.033 9.48825 102.65 8.20801 99.8862 8.20801H95.3091Z" fill="#93E900"/>
</g>
<defs>
<linearGradient id="paint0_linear_2484_11492" x1="19.3394" y1="38.1209" x2="12.6397" y2="13.8933" gradientUnits="userSpaceOnUse">
<stop/>
<stop offset="1" stop-color="#93E900"/>
</linearGradient>
<linearGradient id="paint1_linear_2484_11492" x1="1.48761" y1="-0.556774" x2="6.16008" y2="31.2639" gradientUnits="userSpaceOnUse">
<stop stop-color="#000A14"/>
<stop offset="1" stop-color="#93E900"/>
</linearGradient>
<clipPath id="clip0_2484_11492">
<rect width="112" height="31.8655" fill="white" transform="translate(0 0.865723)"/>
</clipPath>
</defs>
</svg>
